<?xml version="1.0" encoding="utf-8"?>
<!-- Generator: Adobe Illustrator 22.1.0, SVG Export Plug-In . SVG Version: 6.00 Build 0)  -->
<svg version="1.1" id="Camada_1" xmlns="http://www.w3.org/2000/svg" xmlns:xlink="http://www.w3.org/1999/xlink" x="0px" y="0px"
	 viewBox="0 0 102 41" style="enable-background:new 0 0 102 41;" xml:space="preserve">
<style type="text/css">
	.st0{fill:none;}
	.st1{fill:#9E9C90;}
</style>
<g>
	<path class="st0" d="M47.1,13.1c-0.9-0.9-2.1-1.7-3.3-2.2c-1.3-0.5-2.6-0.8-4-0.8c-1.9,0-3.6,0.5-5.2,1.4c-1.6,0.9-2.9,2.2-3.8,3.8
		c-0.9,1.6-1.4,3.3-1.4,5.2c0,1.9,0.5,3.6,1.4,5.2c0.9,1.6,2.2,2.9,3.8,3.8c1.6,0.9,3.3,1.4,5.2,1.4c1.9,0,3.6-0.5,5.2-1.4
		c1.6-0.9,2.9-2.2,3.8-3.8c0.9-1.6,1.4-3.4,1.4-5.2c0-1.4-0.3-2.8-0.8-4C48.8,15.2,48.1,14.1,47.1,13.1z"/>
	<path class="st0" d="M48.3,12c-1.1-1.1-2.4-2-3.9-2.6c-1.5-0.6-3-0.9-4.7-0.9c-2.2,0-4.2,0.5-6,1.6c-1.8,1.1-3.3,2.5-4.4,4.4
		c-1.1,1.9-1.6,3.9-1.6,6.1c0,2.2,0.5,4.2,1.6,6c1.1,1.9,2.5,3.3,4.4,4.4c1.8,1.1,3.8,1.6,6,1.6c1.6,0,3.2-0.3,4.6-0.9
		c1.4-0.6,2.7-1.5,3.8-2.6c1.1-1.1,2-2.4,2.6-3.9c0.6-1.5,0.9-3,0.9-4.7c0-1.6-0.3-3.2-0.9-4.6C50.2,14.4,49.4,13.1,48.3,12z
		 M50,24.8c-0.6,1.4-1.4,2.6-2.4,3.6c-1,1-2.2,1.8-3.6,2.4c-1.4,0.6-2.8,0.9-4.3,0.9c-2,0-3.9-0.5-5.6-1.5c-1.7-1-3-2.4-4-4.1
		c-1-1.7-1.5-3.6-1.5-5.6c0-2,0.5-3.9,1.5-5.6c1-1.7,2.3-3.1,4-4c1.7-1,3.6-1.5,5.6-1.5c1.5,0,2.9,0.3,4.3,0.9
		c1.4,0.6,2.6,1.4,3.6,2.4c1,1,1.8,2.2,2.4,3.6c0.6,1.4,0.9,2.8,0.9,4.3C50.9,22,50.6,23.4,50,24.8z"/>
	<path class="st0" d="M74.1,22.9h8.4l-4.2-11.3L74.1,22.9z M80.4,22l-2.1-5.8L76.2,22h-0.8l2.9-7.9l2.9,7.8H80.4z"/>
	<path class="st1" d="M22,24.5c0,1.2-0.1,2.3-0.2,3.1c-0.2,0.8-0.4,1.6-0.9,2.3c-0.7,1.2-1.7,2.2-3.1,3c-1.3,0.7-2.8,1.1-4.3,1.1
		c-0.3,0-0.5,0-0.7,0l-0.1,0v0.7l0.1,0c0.5,0,0.7,0,0.7,0c1.6,0,3.1-0.4,4.4-1.1c1.4-0.7,2.5-1.7,3.3-2.9c0.6-0.8,1-1.7,1.2-2.7
		c0.2-0.9,0.3-2.1,0.3-3.6V7H22V24.5z"/>
	<path class="st1" d="M13.4,33.1c1.3,0,2.6-0.3,3.7-0.9c1.2-0.6,2.1-1.4,2.7-2.5c0.5-0.7,0.8-1.5,1-2.3c0.2-0.8,0.3-1.9,0.3-3.2V7
		h-2v17.2v0.4c0,1.2-0.1,2.2-0.4,3c-0.3,0.8-0.8,1.5-1.5,2.1c-0.5,0.4-1.1,0.8-1.9,1c-0.8,0.3-1.5,0.4-2.3,0.4h-0.3V33
		c0.2,0,0.3,0,0.4,0C13.2,33.1,13.3,33.1,13.4,33.1z"/>
	<path class="st1" d="M47.6,12.6c-1-1-2.2-1.8-3.6-2.4c-1.4-0.6-2.8-0.9-4.3-0.9c-2,0-3.9,0.5-5.6,1.5c-1.7,1-3,2.4-4,4
		c-1,1.7-1.5,3.6-1.5,5.6c0,2,0.5,3.9,1.5,5.6c1,1.7,2.3,3.1,4,4.1c1.7,1,3.6,1.5,5.6,1.5c1.5,0,2.9-0.3,4.3-0.9
		c1.4-0.6,2.6-1.4,3.6-2.4c1-1,1.8-2.2,2.4-3.6c0.6-1.4,0.8-2.8,0.8-4.3c0-1.5-0.3-2.9-0.9-4.3C49.4,14.9,48.6,13.6,47.6,12.6z
		 M48.8,25.7c-0.9,1.6-2.2,2.9-3.8,3.8c-1.6,0.9-3.3,1.4-5.2,1.4c-1.9,0-3.6-0.5-5.2-1.4c-1.6-0.9-2.9-2.2-3.8-3.8
		c-0.9-1.6-1.4-3.4-1.4-5.2c0-1.9,0.5-3.6,1.4-5.2c0.9-1.6,2.2-2.9,3.8-3.8c1.6-0.9,3.3-1.4,5.2-1.4c1.4,0,2.8,0.3,4,0.8
		c1.3,0.5,2.4,1.3,3.3,2.2c0.9,0.9,1.7,2.1,2.2,3.3c0.5,1.3,0.8,2.6,0.8,4C50.1,22.4,49.7,24.1,48.8,25.7z"/>
	<path class="st1" d="M46.8,8.4c-2.2-1.3-4.5-1.9-7-1.9c-2.5,0-4.9,0.6-7,1.9c-2.2,1.3-3.9,3-5.1,5.1c-1.3,2.1-1.9,4.5-1.9,7
		c0,2.5,0.6,4.9,1.9,7c1.3,2.1,3,3.8,5.1,5.1c2.2,1.3,4.5,1.9,7,1.9c2.5,0,4.9-0.6,7-1.9c2.2-1.3,3.9-3,5.1-5.1
		c1.3-2.1,1.9-4.5,1.9-7c0-2.5-0.6-4.9-1.9-7C50.7,11.3,49,9.6,46.8,8.4z M50.8,25.2c-0.6,1.5-1.5,2.8-2.6,3.9
		c-1.1,1.1-2.4,2-3.8,2.6c-1.4,0.6-3,0.9-4.6,0.9c-2.2,0-4.2-0.5-6-1.6c-1.8-1.1-3.3-2.5-4.4-4.4c-1.1-1.9-1.6-3.9-1.6-6
		c0-2.2,0.5-4.2,1.6-6.1c1.1-1.9,2.5-3.3,4.4-4.4c1.8-1.1,3.8-1.6,6-1.6c1.6,0,3.2,0.3,4.7,0.9c1.5,0.6,2.7,1.5,3.9,2.6
		c1.1,1.1,2,2.4,2.6,3.9c0.6,1.4,0.9,3,0.9,4.6C51.8,22.2,51.5,23.7,50.8,25.2z"/>
	<polygon class="st1" points="70.2,7 54,7 54,8.9 60.5,8.9 60.5,34 62.5,34 62.5,8.9 70.2,8.9 	"/>
	<polygon class="st1" points="70.2,9.8 63.4,9.8 63.4,34 64.1,34 64.1,10.6 70.2,10.6 	"/>
	<rect x="54" y="9.8" class="st1" width="5.6" height="0.7"/>
	<polygon class="st1" points="82.4,25.7 74.2,25.7 71.1,34 71.9,34 74.7,26.5 82,26.5 84.7,34 85.5,34 82.5,25.8 	"/>
	<polygon class="st1" points="75.4,22 76.2,22 78.3,16.2 80.4,22 81.2,22 78.3,14.2 	"/>
	<path class="st1" d="M78.3,6.2L67.9,34H70l3.4-9.2h9.9l3.4,9.2h2.2L78.3,6.2z M74.1,22.9l4.2-11.3l4.2,11.3H74.1z"/>
</g>
</svg>
